<mxfile host="Electron" modified="2024-03-30T20:51:45.207Z" agent="Mozilla/5.0 (Windows NT 10.0; Win64; x64) AppleWebKit/537.36 (KHTML, like Gecko) draw.io/22.1.2 Chrome/114.0.5735.289 Electron/25.9.4 Safari/537.36" etag="CQQcI-rLQUQ-9ktb-GmF" version="22.1.2" type="device">
  <diagram name="Страница — 1" id="qFySoWXMOELDfNZQrssS">
    <mxGraphModel dx="4097" dy="2389" grid="1" gridSize="10" guides="1" tooltips="1" connect="1" arrows="1" fold="1" page="1" pageScale="1" pageWidth="827" pageHeight="1169" math="0" shadow="0">
      <root>
        <mxCell id="0" />
        <mxCell id="1" parent="0" />
        <mxCell id="S973wYFvsUREmSszWi3l-2" value="" style="strokeWidth=1;shadow=0;dashed=0;align=center;html=1;shape=mxgraph.mockup.containers.browserWindow;rSize=0;strokeColor=#666666;strokeColor2=#008cff;strokeColor3=#c4c4c4;mainText=,;recursiveResize=0;" vertex="1" parent="1">
          <mxGeometry x="120" y="30" width="1920" height="1250" as="geometry" />
        </mxCell>
        <mxCell id="S973wYFvsUREmSszWi3l-3" value="Page 1" style="strokeWidth=1;shadow=0;dashed=0;align=center;html=1;shape=mxgraph.mockup.containers.anchor;fontSize=17;fontColor=#666666;align=left;whiteSpace=wrap;" vertex="1" parent="S973wYFvsUREmSszWi3l-2">
          <mxGeometry x="60" y="12" width="110" height="26" as="geometry" />
        </mxCell>
        <mxCell id="S973wYFvsUREmSszWi3l-4" value="https://www.draw.io" style="strokeWidth=1;shadow=0;dashed=0;align=center;html=1;shape=mxgraph.mockup.containers.anchor;rSize=0;fontSize=17;fontColor=#666666;align=left;" vertex="1" parent="S973wYFvsUREmSszWi3l-2">
          <mxGeometry x="130" y="60" width="250" height="26" as="geometry" />
        </mxCell>
        <mxCell id="S973wYFvsUREmSszWi3l-8" value="" style="rounded=0;whiteSpace=wrap;html=1;" vertex="1" parent="S973wYFvsUREmSszWi3l-2">
          <mxGeometry y="110" width="1920" height="60" as="geometry" />
        </mxCell>
        <mxCell id="S973wYFvsUREmSszWi3l-9" value="Search" style="strokeWidth=1;shadow=0;dashed=0;align=center;html=1;shape=mxgraph.mockup.forms.searchBox;strokeColor=#999999;mainText=;strokeColor2=#008cff;fontColor=#666666;fontSize=17;align=left;spacingLeft=3;whiteSpace=wrap;" vertex="1" parent="S973wYFvsUREmSszWi3l-2">
          <mxGeometry x="60" y="125" width="150" height="30" as="geometry" />
        </mxCell>
        <mxCell id="S973wYFvsUREmSszWi3l-17" value="" style="rounded=0;whiteSpace=wrap;html=1;" vertex="1" parent="S973wYFvsUREmSszWi3l-2">
          <mxGeometry x="160" y="170" width="1600" height="1020" as="geometry" />
        </mxCell>
        <mxCell id="S973wYFvsUREmSszWi3l-24" value="" style="group" vertex="1" connectable="0" parent="S973wYFvsUREmSszWi3l-2">
          <mxGeometry x="250" y="300" width="430" height="330" as="geometry" />
        </mxCell>
        <mxCell id="S973wYFvsUREmSszWi3l-19" value="" style="rounded=1;whiteSpace=wrap;html=1;arcSize=8;" vertex="1" parent="S973wYFvsUREmSszWi3l-24">
          <mxGeometry width="430" height="330" as="geometry" />
        </mxCell>
        <mxCell id="S973wYFvsUREmSszWi3l-20" value="&lt;h1&gt;Heading&lt;/h1&gt;&lt;p&gt;Lorem ipsum dolor sit amet, consectetur adipisicing elit, sed do eiusmod tempor incididunt ut labore et dolore magna aliqua.&lt;/p&gt;" style="text;html=1;strokeColor=none;fillColor=none;spacing=5;spacingTop=-20;whiteSpace=wrap;overflow=hidden;rounded=0;" vertex="1" parent="S973wYFvsUREmSszWi3l-24">
          <mxGeometry x="33.72549019607843" y="40" width="160.19607843137254" height="120" as="geometry" />
        </mxCell>
        <mxCell id="S973wYFvsUREmSszWi3l-21" value="Читать" style="rounded=1;html=1;shadow=0;dashed=0;whiteSpace=wrap;fontSize=10;fillColor=#666666;align=center;strokeColor=#4D4D4D;fontColor=#ffffff;" vertex="1" parent="S973wYFvsUREmSszWi3l-24">
          <mxGeometry x="33.72549019607843" y="278" width="88.95098039215686" height="16.88" as="geometry" />
        </mxCell>
        <mxCell id="S973wYFvsUREmSszWi3l-23" value="" style="image;aspect=fixed;html=1;points=[];align=center;fontSize=12;image=img/lib/azure2/general/Image.svg;" vertex="1" parent="S973wYFvsUREmSszWi3l-24">
          <mxGeometry x="244.50980392156862" y="112.06" width="129.84313725490196" height="89.2713725490196" as="geometry" />
        </mxCell>
        <mxCell id="S973wYFvsUREmSszWi3l-56" value="" style="verticalLabelPosition=bottom;verticalAlign=top;html=1;shape=mxgraph.basic.star" vertex="1" parent="S973wYFvsUREmSszWi3l-24">
          <mxGeometry x="342.77" y="40" width="31.58" height="30" as="geometry" />
        </mxCell>
        <mxCell id="S973wYFvsUREmSszWi3l-30" value="" style="group" vertex="1" connectable="0" parent="S973wYFvsUREmSszWi3l-2">
          <mxGeometry x="730" y="300" width="430" height="330" as="geometry" />
        </mxCell>
        <mxCell id="S973wYFvsUREmSszWi3l-31" value="" style="rounded=1;whiteSpace=wrap;html=1;arcSize=8;" vertex="1" parent="S973wYFvsUREmSszWi3l-30">
          <mxGeometry width="430" height="330" as="geometry" />
        </mxCell>
        <mxCell id="S973wYFvsUREmSszWi3l-32" value="&lt;h1&gt;Heading&lt;/h1&gt;&lt;p&gt;Lorem ipsum dolor sit amet, consectetur adipisicing elit, sed do eiusmod tempor incididunt ut labore et dolore magna aliqua.&lt;/p&gt;" style="text;html=1;strokeColor=none;fillColor=none;spacing=5;spacingTop=-20;whiteSpace=wrap;overflow=hidden;rounded=0;" vertex="1" parent="S973wYFvsUREmSszWi3l-30">
          <mxGeometry x="33.72549019607843" y="40" width="160.19607843137254" height="120" as="geometry" />
        </mxCell>
        <mxCell id="S973wYFvsUREmSszWi3l-33" value="Читать" style="rounded=1;html=1;shadow=0;dashed=0;whiteSpace=wrap;fontSize=10;fillColor=#666666;align=center;strokeColor=#4D4D4D;fontColor=#ffffff;" vertex="1" parent="S973wYFvsUREmSszWi3l-30">
          <mxGeometry x="33.72549019607843" y="278" width="88.95098039215686" height="16.88" as="geometry" />
        </mxCell>
        <mxCell id="S973wYFvsUREmSszWi3l-34" value="" style="image;aspect=fixed;html=1;points=[];align=center;fontSize=12;image=img/lib/azure2/general/Image.svg;" vertex="1" parent="S973wYFvsUREmSszWi3l-30">
          <mxGeometry x="244.50980392156862" y="112.06" width="129.84313725490196" height="89.2713725490196" as="geometry" />
        </mxCell>
        <mxCell id="S973wYFvsUREmSszWi3l-58" value="" style="verticalLabelPosition=bottom;verticalAlign=top;html=1;shape=mxgraph.basic.star" vertex="1" parent="S973wYFvsUREmSszWi3l-30">
          <mxGeometry x="342.77" y="40" width="31.58" height="30" as="geometry" />
        </mxCell>
        <mxCell id="S973wYFvsUREmSszWi3l-35" value="" style="group" vertex="1" connectable="0" parent="S973wYFvsUREmSszWi3l-2">
          <mxGeometry x="1230" y="300" width="430" height="330" as="geometry" />
        </mxCell>
        <mxCell id="S973wYFvsUREmSszWi3l-36" value="" style="rounded=1;whiteSpace=wrap;html=1;arcSize=8;" vertex="1" parent="S973wYFvsUREmSszWi3l-35">
          <mxGeometry width="430" height="330" as="geometry" />
        </mxCell>
        <mxCell id="S973wYFvsUREmSszWi3l-37" value="&lt;h1&gt;Heading&lt;/h1&gt;&lt;p&gt;Lorem ipsum dolor sit amet, consectetur adipisicing elit, sed do eiusmod tempor incididunt ut labore et dolore magna aliqua.&lt;/p&gt;" style="text;html=1;strokeColor=none;fillColor=none;spacing=5;spacingTop=-20;whiteSpace=wrap;overflow=hidden;rounded=0;" vertex="1" parent="S973wYFvsUREmSszWi3l-35">
          <mxGeometry x="33.72549019607843" y="40" width="160.19607843137254" height="120" as="geometry" />
        </mxCell>
        <mxCell id="S973wYFvsUREmSszWi3l-38" value="Читать" style="rounded=1;html=1;shadow=0;dashed=0;whiteSpace=wrap;fontSize=10;fillColor=#666666;align=center;strokeColor=#4D4D4D;fontColor=#ffffff;" vertex="1" parent="S973wYFvsUREmSszWi3l-35">
          <mxGeometry x="33.72549019607843" y="278" width="88.95098039215686" height="16.88" as="geometry" />
        </mxCell>
        <mxCell id="S973wYFvsUREmSszWi3l-39" value="" style="image;aspect=fixed;html=1;points=[];align=center;fontSize=12;image=img/lib/azure2/general/Image.svg;" vertex="1" parent="S973wYFvsUREmSszWi3l-35">
          <mxGeometry x="244.50980392156862" y="112.06" width="129.84313725490196" height="89.2713725490196" as="geometry" />
        </mxCell>
        <mxCell id="S973wYFvsUREmSszWi3l-59" value="" style="verticalLabelPosition=bottom;verticalAlign=top;html=1;shape=mxgraph.basic.star" vertex="1" parent="S973wYFvsUREmSszWi3l-35">
          <mxGeometry x="342.77" y="40" width="31.58" height="30" as="geometry" />
        </mxCell>
        <mxCell id="S973wYFvsUREmSszWi3l-40" value="" style="group" vertex="1" connectable="0" parent="S973wYFvsUREmSszWi3l-2">
          <mxGeometry x="250" y="690" width="430" height="330" as="geometry" />
        </mxCell>
        <mxCell id="S973wYFvsUREmSszWi3l-41" value="" style="rounded=1;whiteSpace=wrap;html=1;arcSize=8;" vertex="1" parent="S973wYFvsUREmSszWi3l-40">
          <mxGeometry width="430" height="330" as="geometry" />
        </mxCell>
        <mxCell id="S973wYFvsUREmSszWi3l-42" value="&lt;h1&gt;Heading&lt;/h1&gt;&lt;p&gt;Lorem ipsum dolor sit amet, consectetur adipisicing elit, sed do eiusmod tempor incididunt ut labore et dolore magna aliqua.&lt;/p&gt;" style="text;html=1;strokeColor=none;fillColor=none;spacing=5;spacingTop=-20;whiteSpace=wrap;overflow=hidden;rounded=0;" vertex="1" parent="S973wYFvsUREmSszWi3l-40">
          <mxGeometry x="33.72549019607843" y="40" width="160.19607843137254" height="120" as="geometry" />
        </mxCell>
        <mxCell id="S973wYFvsUREmSszWi3l-43" value="Читать" style="rounded=1;html=1;shadow=0;dashed=0;whiteSpace=wrap;fontSize=10;fillColor=#666666;align=center;strokeColor=#4D4D4D;fontColor=#ffffff;" vertex="1" parent="S973wYFvsUREmSszWi3l-40">
          <mxGeometry x="33.72549019607843" y="278" width="88.95098039215686" height="16.88" as="geometry" />
        </mxCell>
        <mxCell id="S973wYFvsUREmSszWi3l-44" value="" style="image;aspect=fixed;html=1;points=[];align=center;fontSize=12;image=img/lib/azure2/general/Image.svg;" vertex="1" parent="S973wYFvsUREmSszWi3l-40">
          <mxGeometry x="244.50980392156862" y="112.06" width="129.84313725490196" height="89.2713725490196" as="geometry" />
        </mxCell>
        <mxCell id="S973wYFvsUREmSszWi3l-62" value="" style="verticalLabelPosition=bottom;verticalAlign=top;html=1;shape=mxgraph.basic.star" vertex="1" parent="S973wYFvsUREmSszWi3l-40">
          <mxGeometry x="342.77" y="40" width="31.58" height="30" as="geometry" />
        </mxCell>
        <mxCell id="S973wYFvsUREmSszWi3l-45" value="" style="group" vertex="1" connectable="0" parent="S973wYFvsUREmSszWi3l-2">
          <mxGeometry x="730" y="690" width="430" height="330" as="geometry" />
        </mxCell>
        <mxCell id="S973wYFvsUREmSszWi3l-46" value="" style="rounded=1;whiteSpace=wrap;html=1;arcSize=8;" vertex="1" parent="S973wYFvsUREmSszWi3l-45">
          <mxGeometry width="430" height="330" as="geometry" />
        </mxCell>
        <mxCell id="S973wYFvsUREmSszWi3l-47" value="&lt;h1&gt;Heading&lt;/h1&gt;&lt;p&gt;Lorem ipsum dolor sit amet, consectetur adipisicing elit, sed do eiusmod tempor incididunt ut labore et dolore magna aliqua.&lt;/p&gt;" style="text;html=1;strokeColor=none;fillColor=none;spacing=5;spacingTop=-20;whiteSpace=wrap;overflow=hidden;rounded=0;" vertex="1" parent="S973wYFvsUREmSszWi3l-45">
          <mxGeometry x="33.72549019607843" y="40" width="160.19607843137254" height="120" as="geometry" />
        </mxCell>
        <mxCell id="S973wYFvsUREmSszWi3l-48" value="Читать" style="rounded=1;html=1;shadow=0;dashed=0;whiteSpace=wrap;fontSize=10;fillColor=#666666;align=center;strokeColor=#4D4D4D;fontColor=#ffffff;" vertex="1" parent="S973wYFvsUREmSszWi3l-45">
          <mxGeometry x="33.72549019607843" y="278" width="88.95098039215686" height="16.88" as="geometry" />
        </mxCell>
        <mxCell id="S973wYFvsUREmSszWi3l-49" value="" style="image;aspect=fixed;html=1;points=[];align=center;fontSize=12;image=img/lib/azure2/general/Image.svg;" vertex="1" parent="S973wYFvsUREmSszWi3l-45">
          <mxGeometry x="244.50980392156862" y="112.06" width="129.84313725490196" height="89.2713725490196" as="geometry" />
        </mxCell>
        <mxCell id="S973wYFvsUREmSszWi3l-61" value="" style="verticalLabelPosition=bottom;verticalAlign=top;html=1;shape=mxgraph.basic.star" vertex="1" parent="S973wYFvsUREmSszWi3l-45">
          <mxGeometry x="342.77" y="40" width="31.58" height="30" as="geometry" />
        </mxCell>
        <mxCell id="S973wYFvsUREmSszWi3l-50" value="" style="group" vertex="1" connectable="0" parent="S973wYFvsUREmSszWi3l-2">
          <mxGeometry x="1230" y="690" width="430" height="330" as="geometry" />
        </mxCell>
        <mxCell id="S973wYFvsUREmSszWi3l-51" value="" style="rounded=1;whiteSpace=wrap;html=1;arcSize=8;" vertex="1" parent="S973wYFvsUREmSszWi3l-50">
          <mxGeometry width="430" height="330" as="geometry" />
        </mxCell>
        <mxCell id="S973wYFvsUREmSszWi3l-52" value="&lt;h1&gt;Heading&lt;/h1&gt;&lt;p&gt;Lorem ipsum dolor sit amet, consectetur adipisicing elit, sed do eiusmod tempor incididunt ut labore et dolore magna aliqua.&lt;/p&gt;" style="text;html=1;strokeColor=none;fillColor=none;spacing=5;spacingTop=-20;whiteSpace=wrap;overflow=hidden;rounded=0;" vertex="1" parent="S973wYFvsUREmSszWi3l-50">
          <mxGeometry x="33.72549019607843" y="40" width="160.19607843137254" height="120" as="geometry" />
        </mxCell>
        <mxCell id="S973wYFvsUREmSszWi3l-53" value="Читать" style="rounded=1;html=1;shadow=0;dashed=0;whiteSpace=wrap;fontSize=10;fillColor=#666666;align=center;strokeColor=#4D4D4D;fontColor=#ffffff;" vertex="1" parent="S973wYFvsUREmSszWi3l-50">
          <mxGeometry x="33.72549019607843" y="278" width="88.95098039215686" height="16.88" as="geometry" />
        </mxCell>
        <mxCell id="S973wYFvsUREmSszWi3l-54" value="" style="image;aspect=fixed;html=1;points=[];align=center;fontSize=12;image=img/lib/azure2/general/Image.svg;" vertex="1" parent="S973wYFvsUREmSszWi3l-50">
          <mxGeometry x="244.50980392156862" y="112.06" width="129.84313725490196" height="89.2713725490196" as="geometry" />
        </mxCell>
        <mxCell id="S973wYFvsUREmSszWi3l-60" value="" style="verticalLabelPosition=bottom;verticalAlign=top;html=1;shape=mxgraph.basic.star" vertex="1" parent="S973wYFvsUREmSszWi3l-50">
          <mxGeometry x="342.77" y="40" width="31.58" height="30" as="geometry" />
        </mxCell>
        <mxCell id="S973wYFvsUREmSszWi3l-55" value="Сегодня прекрасный день, Добро пожаловать!" style="text;html=1;strokeColor=none;fillColor=none;align=left;verticalAlign=middle;whiteSpace=wrap;rounded=0;fontSize=26;" vertex="1" parent="S973wYFvsUREmSszWi3l-2">
          <mxGeometry x="250" y="210" width="1060" height="50" as="geometry" />
        </mxCell>
        <mxCell id="S973wYFvsUREmSszWi3l-13" value="" style="group" vertex="1" connectable="0" parent="1">
          <mxGeometry x="1930" y="150" width="40" height="40" as="geometry" />
        </mxCell>
        <mxCell id="S973wYFvsUREmSszWi3l-11" value="" style="ellipse;whiteSpace=wrap;html=1;aspect=fixed;" vertex="1" parent="S973wYFvsUREmSszWi3l-13">
          <mxGeometry width="40" height="40" as="geometry" />
        </mxCell>
        <mxCell id="S973wYFvsUREmSszWi3l-12" value="" style="sketch=0;pointerEvents=1;shadow=0;dashed=0;html=1;strokeColor=none;labelPosition=center;verticalLabelPosition=bottom;verticalAlign=top;align=center;fillColor=#505050;shape=mxgraph.mscae.intune.account_portal" vertex="1" parent="S973wYFvsUREmSszWi3l-13">
          <mxGeometry x="9.25" y="7.5" width="21.5" height="25" as="geometry" />
        </mxCell>
        <mxCell id="S973wYFvsUREmSszWi3l-150" value="" style="strokeWidth=1;shadow=0;dashed=0;align=center;html=1;shape=mxgraph.mockup.containers.browserWindow;rSize=0;strokeColor=#666666;strokeColor2=#008cff;strokeColor3=#c4c4c4;mainText=,;recursiveResize=0;" vertex="1" parent="1">
          <mxGeometry x="2160" y="30" width="1920" height="1240" as="geometry" />
        </mxCell>
        <mxCell id="S973wYFvsUREmSszWi3l-151" value="Page 1" style="strokeWidth=1;shadow=0;dashed=0;align=center;html=1;shape=mxgraph.mockup.containers.anchor;fontSize=17;fontColor=#666666;align=left;whiteSpace=wrap;" vertex="1" parent="S973wYFvsUREmSszWi3l-150">
          <mxGeometry x="60" y="12" width="110" height="26" as="geometry" />
        </mxCell>
        <mxCell id="S973wYFvsUREmSszWi3l-152" value="https://www.draw.io" style="strokeWidth=1;shadow=0;dashed=0;align=center;html=1;shape=mxgraph.mockup.containers.anchor;rSize=0;fontSize=17;fontColor=#666666;align=left;" vertex="1" parent="S973wYFvsUREmSszWi3l-150">
          <mxGeometry x="130" y="60" width="250" height="26" as="geometry" />
        </mxCell>
        <mxCell id="S973wYFvsUREmSszWi3l-153" value="" style="rounded=0;whiteSpace=wrap;html=1;" vertex="1" parent="S973wYFvsUREmSszWi3l-150">
          <mxGeometry y="110" width="1920" height="60" as="geometry" />
        </mxCell>
        <mxCell id="S973wYFvsUREmSszWi3l-154" value="Search" style="strokeWidth=1;shadow=0;dashed=0;align=center;html=1;shape=mxgraph.mockup.forms.searchBox;strokeColor=#999999;mainText=;strokeColor2=#008cff;fontColor=#666666;fontSize=17;align=left;spacingLeft=3;whiteSpace=wrap;" vertex="1" parent="S973wYFvsUREmSszWi3l-150">
          <mxGeometry x="60" y="125" width="150" height="30" as="geometry" />
        </mxCell>
        <mxCell id="S973wYFvsUREmSszWi3l-193" value="" style="html=1;verticalLabelPosition=bottom;align=center;labelBackgroundColor=#ffffff;verticalAlign=top;strokeWidth=2;strokeColor=#0080F0;shadow=0;dashed=0;shape=mxgraph.ios7.icons.book;" vertex="1" parent="S973wYFvsUREmSszWi3l-150">
          <mxGeometry x="180" y="193" width="1589.12" height="1070" as="geometry" />
        </mxCell>
        <mxCell id="S973wYFvsUREmSszWi3l-194" value="&lt;h1&gt;&lt;br&gt;&lt;/h1&gt;&lt;div&gt;&lt;br&gt;&lt;/div&gt;Lorem ipsum dolor sit amet, consectetur adipisicing elit, sed do eiusmod tempor incididunt ut labore et dolore magna aliqua.&lt;br&gt;Lorem ipsum dolor sit amet, consectetur adipisicing elit, sed do eiusmod tempor incididunt ut labore et dolore magna aliqua.&lt;br&gt;Lorem ipsum dolor sit amet, consectetur adipisicing elit, sed do eiusmod tempor incididunt ut labore et dolore magna aliqua.&lt;br&gt;Lorem ipsum dolor sit amet, consectetur adipisicing elit, sed do eiusmod tempor incididunt ut labore et dolore magna aliqua.&lt;br&gt;Lorem ipsum dolor sit amet, consectetur adipisicing elit, sed do eiusmod tempor incididunt ut labore et dolore magna aliqua.&lt;br&gt;Lorem ipsum dolor sit amet, consectetur adipisicing elit, sed do eiusmod tempor incididunt ut labore et dolore magna aliqua.&lt;br&gt;Lorem ipsum dolor sit amet, consectetur adipisicing elit, sed do eiusmod tempor incididunt ut labore et dolore magna aliqua.&lt;br&gt;Lorem ipsum dolor sit amet, consectetur adipisicing elit, sed do eiusmod tempor incididunt ut labore et dolore magna aliqua.&lt;br&gt;Lorem ipsum dolor sit amet, consectetur adipisicing elit, sed do eiusmod tempor incididunt ut labore et dolore magna aliqua.&lt;br&gt;Lorem ipsum dolor sit amet, consectetur adipisicing elit, sed do eiusmod tempor incididunt ut labore et dolore magna aliqua.&lt;br&gt;Lorem ipsum dolor sit amet, consectetur adipisicing elit, sed do eiusmod tempor incididunt ut labore et dolore magna aliqua.&lt;br&gt;Lorem ipsum dolor sit amet, consectetur adipisicing elit, sed do eiusmod tempor incididunt ut labore et dolore magna aliqua.&lt;br&gt;Lorem ipsum dolor sit amet, consectetur adipisicing elit, sed do eiusmod tempor incididunt ut labore et dolore magna aliqua.&lt;br&gt;Lorem ipsum dolor sit amet, consectetur adipisicing elit, sed do eiusmod tempor incididunt ut labore et dolore magna aliqua.&lt;br&gt;Lorem ipsum dolor sit amet, consectetur adipisicing elit, sed do eiusmod tempor incididunt ut labore et dolore magna aliqua.&lt;br&gt;Lorem ipsum dolor sit amet, consectetur adipisicing elit, sed do eiusmod tempor incididunt ut labore et dolore magna aliqua.&lt;br&gt;Lorem ipsum dolor sit amet, consectetur adipisicing elit, sed do eiusmod tempor incididunt ut labore et dolore magna aliqua.&lt;br&gt;Lorem ipsum dolor sit amet, consectetur adipisicing elit, sed do eiusmod tempor incididunt ut labore et dolore magna aliqua.&lt;br&gt;Lorem ipsum dolor sit amet, consectetur adipisicing elit, sed do eiusmod tempor incididunt ut labore et dolore magna aliqua.&lt;br&gt;Lorem ipsum dolor sit amet, consectetur adipisicing elit, sed do eiusmod tempor incididunt ut labore et dolore magna aliqua.&lt;br&gt;Lorem ipsum dolor sit amet, consectetur adipisicing elit, sed do eiusmod tempor incididunt ut labore et dolore magna aliqua.&lt;br&gt;Lorem ipsum dolor sit amet, consectetur adipisicing elit, sed do eiusmod tempor incididunt ut labore et dolore magna aliqua.&lt;br&gt;Lorem ipsum dolor sit amet, consectetur adipisicing elit, sed do eiusmod tempor incididunt ut labore et dolore magna aliqua.&lt;br&gt;Lorem ipsum dolor sit amet, consectetur adipisicing elit, sed do eiusmod tempor incididunt ut labore et dolore magna aliqua.&lt;br&gt;Lorem ipsum dolor sit amet, consectetur adipisicing elit, sed do eiusmod tempor incididunt ut labore et dolore magna aliqua.&lt;br&gt;Lorem ipsum dolor sit amet, consectetur adipisicing elit, sed do eiusmod tempor incididunt ut labore et dolore magna aliqua.&lt;br&gt;Lorem ipsum dolor sit amet, consectetur adipisicing elit, sed do eiusmod tempor incididunt ut labore et dolore magna aliqua.&lt;br&gt;Lorem ipsum dolor sit amet, consectetur adipisicing elit, sed do eiusmod tempor incididunt ut labore et dolore magna aliqua.&lt;br&gt;Lorem ipsum dolor sit amet, consectetur adipisicing elit, sed do eiusmod tempor incididunt ut labore et dolore magna aliqua.&lt;br&gt;Lorem ipsum dolor sit amet, consectetur adipisicing elit, sed do eiusmod tempor incididunt ut labore et dolore magna aliqua.&lt;br&gt;Lorem ipsum dolor sit amet, consectetur adipisicing elit, sed do eiusmod tempor incididunt ut labore et dolore magna aliqua.&lt;br&gt;Lorem ipsum dolor sit amet, consectetur adipisicing elit, sed do eiusmod tempor incididunt ut labore et dolore magna aliqua.&lt;br&gt;Lorem ipsum dolor sit amet, consectetur adipisicing elit, sed do eiusmod tempor incididunt ut labore et dolore magna aliqua.&lt;br&gt;Lorem ipsum dolor sit amet, consectetur adipisicing elit, sed do eiusmod tempor incididunt ut labore et dolore magna aliqua.&lt;br&gt;Lorem ipsum dolor sit amet, consectetur adipisicing elit, sed do eiusmod tempor incididunt ut labore et dolore magna aliqua.&lt;br&gt;Lorem ipsum dolor sit amet, consectetur adipisicing elit, sed do eiusmod tempor incididunt ut labore et dolore magna aliqua.&lt;br&gt;Lorem ipsum dolor sit amet, consectetur adipisicing elit, sed do eiusmod tempor incididunt ut labore et dolore magna aliqua.&lt;br&gt;Lorem ipsum dolor sit amet, consectetur adipisicing elit, sed do eiusmod tempor incididunt ut labore et dolore magna aliqua.&lt;br&gt;Lorem ipsum dolor sit amet, consectetur adipisicing elit, sed do eiusmod tempor incididunt ut labore et dolore magna aliqua.&lt;br&gt;Lorem ipsum dolor sit amet, consectetur adipisicing elit, sed do eiusmod tempor incididunt ut labore et dolore magna aliqua.&lt;br&gt;Lorem ipsum dolor sit amet, consectetur adipisicing elit, sed do eiusmod tempor incididunt ut labore et dolore magna aliqua.&lt;br&gt;Lorem ipsum dolor sit amet, consectetur adipisicing elit, sed do eiusmod tempor incididunt ut labore et dolore magna aliqua.&lt;br&gt;Lorem ipsum dolor sit amet, consectetur adipisicing elit, sed do eiusmod tempor incididunt ut labore et dolore magna aliqua.&lt;br&gt;Lorem ipsum dolor sit amet, consectetur adipisicing elit, sed do eiusmod tempor incididunt ut labore et dolore magna aliqua.&lt;br&gt;Lorem ipsum dolor sit amet, consectetur adipisicing elit, sed do eiusmod tempor incididunt ut labore et dolore magna aliqua.&lt;br&gt;Lorem ipsum dolor sit amet, consectetur adipisicing elit, sed do eiusmod tempor incididunt ut labore et dolore magna aliqua.&lt;br&gt;Lorem ipsum dolor sit amet, consectetur adipisicing elit, sed do eiusmod tempor incididunt ut labore et dolore magna aliqua.&lt;br&gt;Lorem ipsum dolor sit amet, consectetur adipisicing elit, sed do eiusmod tempor incididunt ut labore et dolore magna aliqua.&lt;br&gt;Lorem ipsum dolor sit amet, consectetur adipisicing elit, sed do eiusmod tempor incididunt ut labore et dolore magna aliqua.&lt;div&gt;Lorem ipsum dolor sit amet, consectetur adipisicing elit, sed do eiusmod tempor incididunt ut labore et dolore magna aliqua.&lt;br&gt;&lt;/div&gt;" style="text;html=1;strokeColor=none;fillColor=none;spacing=5;spacingTop=-20;whiteSpace=wrap;overflow=hidden;rounded=0;" vertex="1" parent="S973wYFvsUREmSszWi3l-150">
          <mxGeometry x="230" y="240" width="700" height="920" as="geometry" />
        </mxCell>
        <mxCell id="S973wYFvsUREmSszWi3l-195" value="&lt;h1&gt;&lt;br&gt;&lt;/h1&gt;&lt;div&gt;&lt;br&gt;&lt;/div&gt;Lorem ipsum dolor sit amet, consectetur adipisicing elit, sed do eiusmod tempor incididunt ut labore et dolore magna aliqua.&lt;br&gt;Lorem ipsum dolor sit amet, consectetur adipisicing elit, sed do eiusmod tempor incididunt ut labore et dolore magna aliqua.&lt;br&gt;Lorem ipsum dolor sit amet, consectetur adipisicing elit, sed do eiusmod tempor incididunt ut labore et dolore magna aliqua.&lt;br&gt;Lorem ipsum dolor sit amet, consectetur adipisicing elit, sed do eiusmod tempor incididunt ut labore et dolore magna aliqua.&lt;br&gt;Lorem ipsum dolor sit amet, consectetur adipisicing elit, sed do eiusmod tempor incididunt ut labore et dolore magna aliqua.&lt;br&gt;Lorem ipsum dolor sit amet, consectetur adipisicing elit, sed do eiusmod tempor incididunt ut labore et dolore magna aliqua.&lt;br&gt;Lorem ipsum dolor sit amet, consectetur adipisicing elit, sed do eiusmod tempor incididunt ut labore et dolore magna aliqua.&lt;br&gt;Lorem ipsum dolor sit amet, consectetur adipisicing elit, sed do eiusmod tempor incididunt ut labore et dolore magna aliqua.&lt;br&gt;Lorem ipsum dolor sit amet, consectetur adipisicing elit, sed do eiusmod tempor incididunt ut labore et dolore magna aliqua.&lt;br&gt;Lorem ipsum dolor sit amet, consectetur adipisicing elit, sed do eiusmod tempor incididunt ut labore et dolore magna aliqua.&lt;br&gt;Lorem ipsum dolor sit amet, consectetur adipisicing elit, sed do eiusmod tempor incididunt ut labore et dolore magna aliqua.&lt;br&gt;Lorem ipsum dolor sit amet, consectetur adipisicing elit, sed do eiusmod tempor incididunt ut labore et dolore magna aliqua.&lt;br&gt;Lorem ipsum dolor sit amet, consectetur adipisicing elit, sed do eiusmod tempor incididunt ut labore et dolore magna aliqua.&lt;br&gt;Lorem ipsum dolor sit amet, consectetur adipisicing elit, sed do eiusmod tempor incididunt ut labore et dolore magna aliqua.&lt;br&gt;Lorem ipsum dolor sit amet, consectetur adipisicing elit, sed do eiusmod tempor incididunt ut labore et dolore magna aliqua.&lt;br&gt;Lorem ipsum dolor sit amet, consectetur adipisicing elit, sed do eiusmod tempor incididunt ut labore et dolore magna aliqua.&lt;br&gt;Lorem ipsum dolor sit amet, consectetur adipisicing elit, sed do eiusmod tempor incididunt ut labore et dolore magna aliqua.&lt;br&gt;Lorem ipsum dolor sit amet, consectetur adipisicing elit, sed do eiusmod tempor incididunt ut labore et dolore magna aliqua.&lt;br&gt;Lorem ipsum dolor sit amet, consectetur adipisicing elit, sed do eiusmod tempor incididunt ut labore et dolore magna aliqua.&lt;br&gt;Lorem ipsum dolor sit amet, consectetur adipisicing elit, sed do eiusmod tempor incididunt ut labore et dolore magna aliqua.&lt;br&gt;Lorem ipsum dolor sit amet, consectetur adipisicing elit, sed do eiusmod tempor incididunt ut labore et dolore magna aliqua.&lt;br&gt;Lorem ipsum dolor sit amet, consectetur adipisicing elit, sed do eiusmod tempor incididunt ut labore et dolore magna aliqua.&lt;br&gt;Lorem ipsum dolor sit amet, consectetur adipisicing elit, sed do eiusmod tempor incididunt ut labore et dolore magna aliqua.&lt;br&gt;Lorem ipsum dolor sit amet, consectetur adipisicing elit, sed do eiusmod tempor incididunt ut labore et dolore magna aliqua.&lt;br&gt;Lorem ipsum dolor sit amet, consectetur adipisicing elit, sed do eiusmod tempor incididunt ut labore et dolore magna aliqua.&lt;br&gt;Lorem ipsum dolor sit amet, consectetur adipisicing elit, sed do eiusmod tempor incididunt ut labore et dolore magna aliqua.&lt;br&gt;Lorem ipsum dolor sit amet, consectetur adipisicing elit, sed do eiusmod tempor incididunt ut labore et dolore magna aliqua.&lt;br&gt;Lorem ipsum dolor sit amet, consectetur adipisicing elit, sed do eiusmod tempor incididunt ut labore et dolore magna aliqua.&lt;br&gt;Lorem ipsum dolor sit amet, consectetur adipisicing elit, sed do eiusmod tempor incididunt ut labore et dolore magna aliqua.&lt;br&gt;Lorem ipsum dolor sit amet, consectetur adipisicing elit, sed do eiusmod tempor incididunt ut labore et dolore magna aliqua.&lt;br&gt;Lorem ipsum dolor sit amet, consectetur adipisicing elit, sed do eiusmod tempor incididunt ut labore et dolore magna aliqua.&lt;br&gt;Lorem ipsum dolor sit amet, consectetur adipisicing elit, sed do eiusmod tempor incididunt ut labore et dolore magna aliqua.&lt;br&gt;Lorem ipsum dolor sit amet, consectetur adipisicing elit, sed do eiusmod tempor incididunt ut labore et dolore magna aliqua.&lt;br&gt;Lorem ipsum dolor sit amet, consectetur adipisicing elit, sed do eiusmod tempor incididunt ut labore et dolore magna aliqua.&lt;br&gt;Lorem ipsum dolor sit amet, consectetur adipisicing elit, sed do eiusmod tempor incididunt ut labore et dolore magna aliqua.&lt;br&gt;Lorem ipsum dolor sit amet, consectetur adipisicing elit, sed do eiusmod tempor incididunt ut labore et dolore magna aliqua.&lt;br&gt;Lorem ipsum dolor sit amet, consectetur adipisicing elit, sed do eiusmod tempor incididunt ut labore et dolore magna aliqua.&lt;br&gt;Lorem ipsum dolor sit amet, consectetur adipisicing elit, sed do eiusmod tempor incididunt ut labore et dolore magna aliqua.&lt;br&gt;Lorem ipsum dolor sit amet, consectetur adipisicing elit, sed do eiusmod tempor incididunt ut labore et dolore magna aliqua.&lt;br&gt;Lorem ipsum dolor sit amet, consectetur adipisicing elit, sed do eiusmod tempor incididunt ut labore et dolore magna aliqua.&lt;br&gt;Lorem ipsum dolor sit amet, consectetur adipisicing elit, sed do eiusmod tempor incididunt ut labore et dolore magna aliqua.&lt;br&gt;Lorem ipsum dolor sit amet, consectetur adipisicing elit, sed do eiusmod tempor incididunt ut labore et dolore magna aliqua.&lt;br&gt;Lorem ipsum dolor sit amet, consectetur adipisicing elit, sed do eiusmod tempor incididunt ut labore et dolore magna aliqua.&lt;br&gt;Lorem ipsum dolor sit amet, consectetur adipisicing elit, sed do eiusmod tempor incididunt ut labore et dolore magna aliqua.&lt;br&gt;Lorem ipsum dolor sit amet, consectetur adipisicing elit, sed do eiusmod tempor incididunt ut labore et dolore magna aliqua.&lt;br&gt;Lorem ipsum dolor sit amet, consectetur adipisicing elit, sed do eiusmod tempor incididunt ut labore et dolore magna aliqua.&lt;br&gt;Lorem ipsum dolor sit amet, consectetur adipisicing elit, sed do eiusmod tempor incididunt ut labore et dolore magna aliqua.&lt;br&gt;Lorem ipsum dolor sit amet, consectetur adipisicing elit, sed do eiusmod tempor incididunt ut labore et dolore magna aliqua.&lt;br&gt;Lorem ipsum dolor sit amet, consectetur adipisicing elit, sed do eiusmod tempor incididunt ut labore et dolore magna aliqua.&lt;div&gt;Lorem ipsum dolor sit amet, consectetur adipisicing elit, sed do eiusmod tempor incididunt ut labore et dolore magna aliqua.&lt;br&gt;&lt;/div&gt;" style="text;html=1;strokeColor=none;fillColor=none;spacing=5;spacingTop=-20;whiteSpace=wrap;overflow=hidden;rounded=0;" vertex="1" parent="S973wYFvsUREmSszWi3l-150">
          <mxGeometry x="1020" y="240" width="700" height="920" as="geometry" />
        </mxCell>
        <mxCell id="S973wYFvsUREmSszWi3l-196" value="" style="shape=singleArrow;whiteSpace=wrap;html=1;" vertex="1" parent="S973wYFvsUREmSszWi3l-150">
          <mxGeometry x="1580" y="1100" width="100" height="60" as="geometry" />
        </mxCell>
        <mxCell id="S973wYFvsUREmSszWi3l-197" value="" style="shape=singleArrow;direction=west;whiteSpace=wrap;html=1;" vertex="1" parent="S973wYFvsUREmSszWi3l-150">
          <mxGeometry x="240" y="1100" width="100" height="60" as="geometry" />
        </mxCell>
        <mxCell id="S973wYFvsUREmSszWi3l-198" value="" style="group" vertex="1" connectable="0" parent="S973wYFvsUREmSszWi3l-150">
          <mxGeometry x="1810" y="120" width="40" height="40" as="geometry" />
        </mxCell>
        <mxCell id="S973wYFvsUREmSszWi3l-199" value="" style="ellipse;whiteSpace=wrap;html=1;aspect=fixed;" vertex="1" parent="S973wYFvsUREmSszWi3l-198">
          <mxGeometry width="40" height="40" as="geometry" />
        </mxCell>
        <mxCell id="S973wYFvsUREmSszWi3l-200" value="" style="sketch=0;pointerEvents=1;shadow=0;dashed=0;html=1;strokeColor=none;labelPosition=center;verticalLabelPosition=bottom;verticalAlign=top;align=center;fillColor=#505050;shape=mxgraph.mscae.intune.account_portal" vertex="1" parent="S973wYFvsUREmSszWi3l-198">
          <mxGeometry x="9.25" y="7.5" width="21.5" height="25" as="geometry" />
        </mxCell>
      </root>
    </mxGraphModel>
  </diagram>
</mxfile>
